# xmcd CD database file
#
# Track frame offsets:
#	150
#	16899
#	37379
#	54846
#	72235
#	83322
#	98830
#	114828
#	126879
#	142406
#	156575
#	172788
#	190204
#
# Disc length: 2793 seconds
#
# Revision: 0
# Processed by: cddbd v1.5PL3 Copyright (c) Steve Scherf et al.
# Submitted via: CDex 1.51
#
DISCID=aa0ae70d
DTITLE=Junyo e Janyo - Junyo e Janyo
DYEAR=2004
DGENRE=Country
TTITLE0=Rebla Dance
TTITLE1=Chove Solidão
TTITLE2=Chutando Lata
TTITLE3=Pop Star
TTITLE4=Barraca Armada
TTITLE5=Dono de Mim
TTITLE6=Noites de Bailão
TTITLE7=Point Novo
TTITLE8=Pudim de Pinga
TTITLE9=Por que?
TTITLE10=Medo da Paixão
TTITLE11=O Coração não Acredita
TTITLE12=No Primeiro Olhar
EXTD=YEAR: 2004
EXTT0=
EXTT1=
EXTT2=
EXTT3=
EXTT4=
EXTT5=
EXTT6=
EXTT7=
EXTT8=
EXTT9=
EXTT10=
EXTT11=
EXTT12=
PLAYORDER=
